STARTFONT 2.1
COMMENT
COMMENT Converted from OpenType font "CircularStd-Bold.otf" by "otf2bdf 3.0".
COMMENT
FONT -FreeType-Circular Std Bold-Medium-R-Normal--21-150-100-100-P-109-ISO10646-1
SIZE 15 100 100
FONTBOUNDINGBOX 33 24 -1 -5
STARTPROPERTIES 19
FOUNDRY "FreeType"
FAMILY_NAME "Circular Std Bold"
WEIGHT_NAME "Medium"
SLANT "R"
SETWIDTH_NAME "Normal"
ADD_STYLE_NAME ""
PIXEL_SIZE 21
POINT_SIZE 150
RESOLUTION_X 100
RESOLUTION_Y 100
SPACING "P"
AVERAGE_WIDTH 109
CHARSET_REGISTRY "ISO10646"
CHARSET_ENCODING "1"
FONT_ASCENT 20
FONT_DESCENT 5
COPYRIGHT "Generated in 2013 by FontLab Studio. Copyright info pending."
_OTF_FONTFILE "CircularStd-Bold.otf"
_OTF_PSNAME "CircularStd-Bold"
ENDPROPERTIES
CHARS 332
STARTCHAR 0000
ENCODING 0
SWIDTH 0 0
DWIDTH 0 0
BBX 0 0 0 0
BITMAP
ENDCHAR
STARTCHAR 000D
ENCODING 13
SWIDTH 240 0
DWIDTH 5 0
BBX 0 0 0 0
BITMAP
ENDCHAR
STARTCHAR 0020
ENCODING 32
SWIDTH 240 0
DWIDTH 5 0
BBX 0 0 0 0
BITMAP
ENDCHAR
STARTCHAR 0021
ENCODING 33
SWIDTH 336 0
DWIDTH 7 0
BBX 3 15 2 0
BITMAP
E0
E0
E0
E0
E0
E0
E0
E0
E0
E0
00
00
E0
E0
E0
ENDCHAR
STARTCHAR 0022
ENCODING 34
SWIDTH 384 0
DWIDTH 8 0
BBX 7 6 1 8
BITMAP
CC
EE
EC
CC
CC
4C
ENDCHAR
STARTCHAR 0023
ENCODING 35
SWIDTH 720 0
DWIDTH 15 0
BBX 14 14 1 0
BITMAP
0E70
0C60
0C60
0C60
7FFC
7FFC
1CC0
18C0
18C0
FFF8
FFF8
3180
3180
3180
ENDCHAR
STARTCHAR 0024
ENCODING 36
SWIDTH 576 0
DWIDTH 12 0
BBX 10 18 1 -2
BITMAP
0C00
0C00
1E00
3F80
7FC0
61C0
E000
7800
7F00
3FC0
03C0
61C0
E1C0
7FC0
7F80
1F00
0C00
0C00
ENDCHAR
STARTCHAR 0025
ENCODING 37
SWIDTH 864 0
DWIDTH 18 0
BBX 16 14 1 0
BITMAP
381C
7C38
CE30
C670
CEE0
7CC0
3980
039C
033E
0663
0E63
0C63
183E
381C
ENDCHAR
STARTCHAR 0026
ENCODING 38
SWIDTH 720 0
DWIDTH 15 0
BBX 13 15 1 0
BITMAP
1E00
3F80
7380
7180
7380
3F80
3F08
1E18
7F38
77F8
E3F0
E1E0
73F0
7F70
1E38
ENDCHAR
STARTCHAR 0027
ENCODING 39
SWIDTH 240 0
DWIDTH 5 0
BBX 3 6 1 8
BITMAP
C0
E0
E0
C0
C0
40
ENDCHAR
STARTCHAR 0028
ENCODING 40
SWIDTH 336 0
DWIDTH 7 0
BBX 6 21 1 -4
BITMAP
08
1C
38
30
70
60
E0
E0
C0
C0
C0
C0
C0
E0
E0
60
70
30
38
1C
08
ENDCHAR
STARTCHAR 0029
ENCODING 41
SWIDTH 336 0
DWIDTH 7 0
BBX 6 21 0 -4
BITMAP
40
E0
70
30
38
18
18
1C
1C
0C
0C
0C
0C
1C
18
18
38
30
70
E0
40
ENDCHAR
STARTCHAR 002A
ENCODING 42
SWIDTH 432 0
DWIDTH 9 0
BBX 8 8 1 7
BITMAP
18
18
DE
FF
7C
7C
6E
24
ENDCHAR
STARTCHAR 002B
ENCODING 43
SWIDTH 576 0
DWIDTH 12 0
BBX 10 10 1 1
BITMAP
0C00
0C00
0C00
0C00
FFC0
FFC0
0C00
0C00
0C00
0C00
ENDCHAR
STARTCHAR 002C
ENCODING 44
SWIDTH 336 0
DWIDTH 7 0
BBX 4 6 1 -3
BITMAP
70
F0
70
30
60
40
ENDCHAR
STARTCHAR 002D
ENCODING 45
SWIDTH 384 0
DWIDTH 8 0
BBX 6 2 1 5
BITMAP
FC
FC
ENDCHAR
STARTCHAR 002E
ENCODING 46
SWIDTH 288 0
DWIDTH 6 0
BBX 4 4 1 0
BITMAP
60
F0
F0
60
ENDCHAR
STARTCHAR 002F
ENCODING 47
SWIDTH 480 0
DWIDTH 10 0
BBX 10 15 0 0
BITMAP
01C0
0180
0380
0300
0700
0600
0E00
0C00
1C00
1800
3800
3000
7000
6000
E000
ENDCHAR
STARTCHAR 0030
ENCODING 48
SWIDTH 624 0
DWIDTH 13 0
BBX 11 14 1 0
BITMAP
1F00
3F80
7FC0
F1E0
E0E0
E0E0
E0E0
E0E0
E0E0
E0E0
F1E0
7FC0
3F80
1F00
ENDCHAR
STARTCHAR 0031
ENCODING 49
SWIDTH 384 0
DWIDTH 8 0
BBX 6 14 1 0
BITMAP
1C
1C
3C
FC
FC
1C
1C
1C
1C
1C
1C
1C
1C
1C
ENDCHAR
STARTCHAR 0032
ENCODING 50
SWIDTH 528 0
DWIDTH 11 0
BBX 10 14 1 0
BITMAP
3E00
7F00
FF80
E380
E1C0
E380
0380
0F00
3E00
7C00
F000
E000
FFC0
FFC0
ENDCHAR
STARTCHAR 0033
ENCODING 51
SWIDTH 528 0
DWIDTH 11 0
BBX 11 14 0 0
BITMAP
7FC0
7FC0
01C0
0780
0F00
1F80
0FC0
01C0
00E0
E0E0
70E0
7BC0
3FC0
1F00
ENDCHAR
STARTCHAR 0034
ENCODING 52
SWIDTH 576 0
DWIDTH 12 0
BBX 11 14 1 0
BITMAP
0780
0F80
0F80
1F80
3B80
7380
7380
E380
C380
FFE0
FFE0
0380
0380
0380
ENDCHAR
STARTCHAR 0035
ENCODING 53
SWIDTH 576 0
DWIDTH 12 0
BBX 10 14 1 0
BITMAP
7F80
7F80
7000
6000
6000
FF00
FF80
63C0
01C0
41C0
E1C0
F780
7F80
3E00
ENDCHAR
STARTCHAR 0036
ENCODING 54
SWIDTH 576 0
DWIDTH 12 0
BBX 11 14 1 0
BITMAP
0FC0
1FC0
3FC0
7000
E000
FF80
FFC0
F1C0
E0E0
E0E0
E1C0
7BC0
3F80
1F00
ENDCHAR
STARTCHAR 0037
ENCODING 55
SWIDTH 480 0
DWIDTH 10 0
BBX 10 14 0 0
BITMAP
FFC0
FFC0
01C0
0380
0700
0700
0E00
0E00
1C00
1C00
1C00
3800
3800
3800
ENDCHAR
STARTCHAR 0038
ENCODING 56
SWIDTH 576 0
DWIDTH 12 0
BBX 10 14 1 0
BITMAP
3E00
7F80
F380
E1C0
E1C0
7380
7F00
7F80
E1C0
E1C0
E1C0
F3C0
7F80
3F00
ENDCHAR
STARTCHAR 0039
ENCODING 57
SWIDTH 576 0
DWIDTH 12 0
BBX 10 14 1 0
BITMAP
3E00
7F80
F780
E1C0
C1C0
E1C0
E3C0
7FC0
7FC0
01C0
0380
6F80
FF00
7C00
ENDCHAR
STARTCHAR 003A
ENCODING 58
SWIDTH 336 0
DWIDTH 7 0
BBX 4 10 1 0
BITMAP
60
F0
F0
60
00
00
60
F0
F0
60
ENDCHAR
STARTCHAR 003B
ENCODING 59
SWIDTH 336 0
DWIDTH 7 0
BBX 4 13 1 -3
BITMAP
60
F0
F0
60
00
00
00
60
F0
70
10
30
60
ENDCHAR
STARTCHAR 003C
ENCODING 60
SWIDTH 480 0
DWIDTH 10 0
BBX 9 11 1 1
BITMAP
0080
0380
0F80
3E00
F800
E000
F800
3E00
0F80
0380
0080
ENDCHAR
STARTCHAR 003D
ENCODING 61
SWIDTH 624 0
DWIDTH 13 0
BBX 10 6 1 3
BITMAP
FFC0
FFC0
0000
0000
FFC0
FFC0
ENDCHAR
STARTCHAR 003E
ENCODING 62
SWIDTH 480 0
DWIDTH 10 0
BBX 9 11 1 1
BITMAP
8000
E000
F800
3E00
0F80
0380
0F80
3E00
F800
E000
8000
ENDCHAR
STARTCHAR 003F
ENCODING 63
SWIDTH 528 0
DWIDTH 11 0
BBX 9 15 1 0
BITMAP
3E00
7F00
F780
E380
C180
0380
0780
0F00
1C00
1800
0000
0000
1C00
1C00
1800
ENDCHAR
STARTCHAR 0040
ENCODING 64
SWIDTH 816 0
DWIDTH 17 0
BBX 15 16 1 -1
BITMAP
07E0
1FF8
381C
700E
63B6
C7F6
CC62
CC66
CC66
CC66
CFFC
6738
7000
3810
1FF8
07E0
ENDCHAR
STARTCHAR 0041
ENCODING 65
SWIDTH 720 0
DWIDTH 15 0
BBX 15 15 0 0
BITMAP
0380
07C0
07C0
06E0
0EE0
0EE0
1C70
1C70
1C70
3FF8
3FF8
3FFC
701C
701C
E00E
ENDCHAR
STARTCHAR 0042
ENCODING 66
SWIDTH 624 0
DWIDTH 13 0
BBX 10 15 2 0
BITMAP
FE00
FF80
E780
E180
E180
E380
FF00
FF00
E380
E1C0
E1C0
E1C0
E3C0
FF80
FF00
ENDCHAR
STARTCHAR 0043
ENCODING 67
SWIDTH 768 0
DWIDTH 16 0
BBX 14 15 1 0
BITMAP
07C0
1FF0
3FF8
783C
F01C
E010
E000
E000
E000
E010
F01C
783C
3FF8
1FF0
07C0
ENDCHAR
STARTCHAR 0044
ENCODING 68
SWIDTH 720 0
DWIDTH 15 0
BBX 12 15 2 0
BITMAP
FF00
FFC0
FFE0
E0E0
E0F0
E070
E070
E070
E070
E070
E070
E0E0
FFE0
FFC0
FF00
ENDCHAR
STARTCHAR 0045
ENCODING 69
SWIDTH 576 0
DWIDTH 12 0
BBX 9 15 2 0
BITMAP
FF80
FF80
FF80
E000
E000
E000
FF00
FF00
FF00
E000
E000
E000
FF80
FF80
FF80
ENDCHAR
STARTCHAR 0046
ENCODING 70
SWIDTH 576 0
DWIDTH 12 0
BBX 9 15 2 0
BITMAP
FF80
FF80
FF80
E000
E000
E000
FF00
FF00
FF00
E000
E000
E000
E000
E000
E000
ENDCHAR
STARTCHAR 0047
ENCODING 71
SWIDTH 768 0
DWIDTH 16 0
BBX 14 15 1 0
BITMAP
07C0
1FF0
3FF8
783C
F01C
E000
E000
E1FC
E1FC
E01C
F01C
783C
3FFC
1FEC
0FCC
ENDCHAR
STARTCHAR 0048
ENCODING 72
SWIDTH 768 0
DWIDTH 16 0
BBX 12 15 2 0
BITMAP
E070
E070
E070
E070
E070
E070
FFF0
FFF0
FFF0
E070
E070
E070
E070
E070
E070
ENDCHAR
STARTCHAR 0049
ENCODING 73
SWIDTH 288 0
DWIDTH 6 0
BBX 3 15 2 0
BITMAP
E0
E0
E0
E0
E0
E0
E0
E0
E0
E0
E0
E0
E0
E0
E0
ENDCHAR
STARTCHAR 004A
ENCODING 74
SWIDTH 576 0
DWIDTH 12 0
BBX 10 15 0 0
BITMAP
01C0
01C0
01C0
01C0
01C0
01C0
01C0
01C0
01C0
E1C0
E1C0
71C0
7F80
3F80
1E00
ENDCHAR
STARTCHAR 004B
ENCODING 75
SWIDTH 720 0
DWIDTH 15 0
BBX 12 15 2 0
BITMAP
E0F0
E1E0
E3C0
E780
E700
EE00
FC00
FE00
FF00
F700
E380
E3C0
E1E0
E0E0
E0F0
ENDCHAR
STARTCHAR 004C
ENCODING 76
SWIDTH 576 0
DWIDTH 12 0
BBX 9 15 2 0
BITMAP
E000
E000
E000
E000
E000
E000
E000
E000
E000
E000
E000
E000
FF80
FF80
FF80
ENDCHAR
STARTCHAR 004D
ENCODING 77
SWIDTH 960 0
DWIDTH 20 0
BBX 16 15 2 0
BITMAP
F00F
F00F
F01F
F81F
F83F
DC3F
DC3F
CE77
CE77
CEE7
C7E7
C7C7
C3C7
C3C7
C387
ENDCHAR
STARTCHAR 004E
ENCODING 78
SWIDTH 768 0
DWIDTH 16 0
BBX 12 15 2 0
BITMAP
F070
F070
F870
F870
FC70
FE70
EE70
E770
E7F0
E3F0
E3F0
E1F0
E0F0
E0F0
E070
ENDCHAR
STARTCHAR 004F
ENCODING 79
SWIDTH 816 0
DWIDTH 17 0
BBX 15 15 1 0
BITMAP
07C0
1FF0
3FF8
783C
F01C
E00E
E00E
E00E
E00E
E00E
F01C
783C
3FF8
1FF0
07C0
ENDCHAR
STARTCHAR 0050
ENCODING 80
SWIDTH 624 0
DWIDTH 13 0
BBX 10 15 2 0
BITMAP
FF00
FF80
E7C0
E1C0
E1C0
E1C0
E3C0
FF80
FF00
E000
E000
E000
E000
E000
E000
ENDCHAR
STARTCHAR 0051
ENCODING 81
SWIDTH 816 0
DWIDTH 17 0
BBX 15 16 1 -1
BITMAP
07C0
1FF0
3FF8
783C
F01C
E00E
E00E
E00E
E0CE
E1CE
F0FC
787C
3FF8
1FFC
07CE
0004
ENDCHAR
STARTCHAR 0052
ENCODING 82
SWIDTH 624 0
DWIDTH 13 0
BBX 10 15 2 0
BITMAP
FF00
FF80
E7C0
E1C0
E1C0
E1C0
E7C0
FF80
FE00
EE00
E700
E700
E380
E380
E1C0
ENDCHAR
STARTCHAR 0053
ENCODING 83
SWIDTH 624 0
DWIDTH 13 0
BBX 11 15 1 0
BITMAP
1F00
3F80
7FC0
E0E0
E000
F000
7E00
3F80
0FC0
01E0
C0E0
E0E0
FFC0
7FC0
1F00
ENDCHAR
STARTCHAR 0054
ENCODING 84
SWIDTH 624 0
DWIDTH 13 0
BBX 13 15 0 0
BITMAP
FFF8
FFF8
FFF8
0700
0700
0700
0700
0700
0700
0700
0700
0700
0700
0700
0700
ENDCHAR
STARTCHAR 0055
ENCODING 85
SWIDTH 672 0
DWIDTH 14 0
BBX 11 15 2 0
BITMAP
C0E0
C0E0
C0E0
C0E0
C0E0
C0E0
C0E0
C0E0
C0E0
C0E0
E0E0
E1E0
FFC0
7F80
1F00
ENDCHAR
STARTCHAR 0056
ENCODING 86
SWIDTH 672 0
DWIDTH 14 0
BBX 14 15 0 0
BITMAP
F01C
701C
7038
7838
3870
3870
1C70
1CE0
1CE0
0EE0
0FC0
0FC0
07C0
0780
0780
ENDCHAR
STARTCHAR 0057
ENCODING 87
SWIDTH 1008 0
DWIDTH 21 0
BBX 21 15 0 0
BITMAP
E07038
707838
70F830
70F870
70FC70
38DC70
39DC60
39CEE0
1D8EE0
1F8EE0
1F87C0
1F07C0
0F07C0
0F0380
0F0380
ENDCHAR
STARTCHAR 0058
ENCODING 88
SWIDTH 672 0
DWIDTH 14 0
BBX 12 15 1 0
BITMAP
E070
F0F0
70E0
39C0
3FC0
1F80
0F00
0F00
0F00
1F80
3BC0
39C0
70E0
F0F0
E070
ENDCHAR
STARTCHAR 0059
ENCODING 89
SWIDTH 672 0
DWIDTH 14 0
BBX 13 15 0 0
BITMAP
F038
7078
3870
3CE0
1CE0
1FC0
0FC0
0780
0700
0700
0700
0700
0700
0700
0700
ENDCHAR
STARTCHAR 005A
ENCODING 90
SWIDTH 624 0
DWIDTH 13 0
BBX 11 15 1 0
BITMAP
FFE0
FFE0
FFE0
01E0
03C0
0780
0F00
0E00
1E00
3C00
7800
F000
FFE0
FFE0
FFE0
ENDCHAR
STARTCHAR 005B
ENCODING 91
SWIDTH 336 0
DWIDTH 7 0
BBX 4 20 2 -3
BITMAP
F0
F0
C0
C0
C0
C0
C0
C0
C0
C0
C0
C0
C0
C0
C0
C0
C0
C0
F0
F0
ENDCHAR
STARTCHAR 005C
ENCODING 92
SWIDTH 480 0
DWIDTH 10 0
BBX 10 15 0 0
BITMAP
E000
6000
7000
3000
3800
1800
1C00
0C00
0E00
0600
0700
0300
0380
0180
01C0
ENDCHAR
STARTCHAR 005D
ENCODING 93
SWIDTH 336 0
DWIDTH 7 0
BBX 5 20 0 -3
BITMAP
F8
F8
18
18
18
18
18
18
18
18
18
18
18
18
18
18
18
18
F8
F8
ENDCHAR
STARTCHAR 005E
ENCODING 94
SWIDTH 528 0
DWIDTH 11 0
BBX 9 8 1 7
BITMAP
1C00
1C00
3E00
3600
7700
6300
E380
C180
ENDCHAR
STARTCHAR 005F
ENCODING 95
SWIDTH 528 0
DWIDTH 11 0
BBX 11 2 0 -2
BITMAP
FFE0
FFE0
ENDCHAR
STARTCHAR 0060
ENCODING 96
SWIDTH 288 0
DWIDTH 6 0
BBX 4 4 1 11
BITMAP
E0
60
70
30
ENDCHAR
STARTCHAR 0061
ENCODING 97
SWIDTH 528 0
DWIDTH 11 0
BBX 9 10 1 0
BITMAP
3E00
7F00
E380
6380
1F80
7F80
E380
E380
FF80
7B80
ENDCHAR
STARTCHAR 0062
ENCODING 98
SWIDTH 624 0
DWIDTH 13 0
BBX 11 15 1 0
BITMAP
E000
E000
E000
E000
E000
EF80
FFC0
FFC0
F0E0
E0E0
E0E0
E0E0
F1C0
FFC0
EF00
ENDCHAR
STARTCHAR 0063
ENCODING 99
SWIDTH 528 0
DWIDTH 11 0
BBX 10 10 1 0
BITMAP
1E00
7F80
FF80
E180
E000
E000
E180
FFC0
7F80
1E00
ENDCHAR
STARTCHAR 0064
ENCODING 100
SWIDTH 624 0
DWIDTH 13 0
BBX 10 15 1 0
BITMAP
00C0
00C0
00C0
00C0
00C0
3EC0
7FC0
FFC0
E1C0
E1C0
E0C0
E1C0
F3C0
7FC0
3EC0
ENDCHAR
STARTCHAR 0065
ENCODING 101
SWIDTH 576 0
DWIDTH 12 0
BBX 10 10 1 0
BITMAP
1E00
7F80
F380
E1C0
FFC0
FFC0
E000
F380
7F80
1E00
ENDCHAR
STARTCHAR 0066
ENCODING 102
SWIDTH 336 0
DWIDTH 7 0
BBX 7 15 0 0
BITMAP
0E
1E
3C
38
38
FE
FE
38
38
38
38
38
38
38
38
ENDCHAR
STARTCHAR 0067
ENCODING 103
SWIDTH 576 0
DWIDTH 12 0
BBX 10 14 1 -4
BITMAP
3FC0
7FC0
F3C0
E1C0
E1C0
E1C0
E1C0
7FC0
3FC0
01C0
E1C0
F780
7F80
3E00
ENDCHAR
STARTCHAR 0068
ENCODING 104
SWIDTH 576 0
DWIDTH 12 0
BBX 10 15 1 0
BITMAP
E000
E000
E000
E000
E000
EF00
FF80
FFC0
E1C0
E1C0
E1C0
E1C0
E1C0
E1C0
E1C0
ENDCHAR
STARTCHAR 0069
ENCODING 105
SWIDTH 288 0
DWIDTH 6 0
BBX 4 15 1 0
BITMAP
60
F0
E0
00
00
E0
E0
E0
E0
E0
E0
E0
E0
E0
E0
ENDCHAR
STARTCHAR 006A
ENCODING 106
SWIDTH 288 0
DWIDTH 6 0
BBX 6 19 -1 -4
BITMAP
18
3C
38
00
00
38
38
38
38
38
38
38
38
38
38
38
B8
F8
F0
ENDCHAR
STARTCHAR 006B
ENCODING 107
SWIDTH 576 0
DWIDTH 12 0
BBX 10 15 1 0
BITMAP
E000
E000
E000
E000
E000
E3C0
E780
EF00
FE00
FE00
FE00
F700
E780
E380
E1C0
ENDCHAR
STARTCHAR 006C
ENCODING 108
SWIDTH 288 0
DWIDTH 6 0
BBX 3 15 1 0
BITMAP
E0
E0
E0
E0
E0
E0
E0
E0
E0
E0
E0
E0
E0
E0
E0
ENDCHAR
STARTCHAR 006D
ENCODING 109
SWIDTH 864 0
DWIDTH 18 0
BBX 16 10 1 0
BITMAP
EF3C
FFFF
F3E7
E1C7
E1C7
E1C7
E1C7
E1C7
E1C7
E1C7
ENDCHAR
STARTCHAR 006E
ENCODING 110
SWIDTH 576 0
DWIDTH 12 0
BBX 10 10 1 0
BITMAP
EF00
FF80
FFC0
E1C0
E1C0
E1C0
E1C0
E1C0
E1C0
E1C0
ENDCHAR
STARTCHAR 006F
ENCODING 111
SWIDTH 576 0
DWIDTH 12 0
BBX 10 10 1 0
BITMAP
1E00
7F80
FFC0
E1C0
E0C0
E0C0
E1C0
FFC0
7F80
1E00
ENDCHAR
STARTCHAR 0070
ENCODING 112
SWIDTH 624 0
DWIDTH 13 0
BBX 11 14 1 -4
BITMAP
EF80
FFC0
FFC0
F0E0
E0E0
E0E0
F0E0
FBC0
FFC0
EF00
E000
E000
E000
E000
ENDCHAR
STARTCHAR 0071
ENCODING 113
SWIDTH 624 0
DWIDTH 13 0
BBX 10 14 1 -4
BITMAP
3EC0
7FC0
FFC0
E1C0
E0C0
E0C0
E1C0
FFC0
7FC0
3EC0
00C0
00C0
00C0
00C0
ENDCHAR
STARTCHAR 0072
ENCODING 114
SWIDTH 384 0
DWIDTH 8 0
BBX 7 10 1 0
BITMAP
EE
FE
FE
F0
E0
E0
E0
E0
E0
E0
ENDCHAR
STARTCHAR 0073
ENCODING 115
SWIDTH 480 0
DWIDTH 10 0
BBX 8 10 1 0
BITMAP
3C
FE
E7
E0
FC
3E
07
E7
FE
3C
ENDCHAR
STARTCHAR 0074
ENCODING 116
SWIDTH 384 0
DWIDTH 8 0
BBX 7 13 0 0
BITMAP
38
38
38
FE
FE
38
38
38
38
38
3C
1E
1E
ENDCHAR
STARTCHAR 0075
ENCODING 117
SWIDTH 576 0
DWIDTH 12 0
BBX 10 10 1 0
BITMAP
E1C0
E1C0
E1C0
E1C0
E1C0
E1C0
E1C0
73C0
7FC0
3DC0
ENDCHAR
STARTCHAR 0076
ENCODING 118
SWIDTH 528 0
DWIDTH 11 0
BBX 11 10 0 0
BITMAP
E0E0
70E0
71C0
39C0
3980
1B80
1F80
1F00
0F00
0E00
ENDCHAR
STARTCHAR 0077
ENCODING 119
SWIDTH 816 0
DWIDTH 17 0
BBX 17 10 0 0
BITMAP
E1C380
71E380
73E300
73E700
337700
3F7600
3F3E00
1E3E00
1E1C00
1C1C00
ENDCHAR
STARTCHAR 0078
ENCODING 120
SWIDTH 528 0
DWIDTH 11 0
BBX 9 10 1 0
BITMAP
E380
F380
7700
3E00
1C00
1E00
3E00
7700
E380
E380
ENDCHAR
STARTCHAR 0079
ENCODING 121
SWIDTH 576 0
DWIDTH 12 0
BBX 11 14 0 -4
BITMAP
E0E0
70E0
71C0
39C0
3980
1F80
1F00
0F00
0F00
0E00
0E00
1C00
1C00
3800
ENDCHAR
STARTCHAR 007A
ENCODING 122
SWIDTH 480 0
DWIDTH 10 0
BBX 8 10 1 0
BITMAP
FF
FF
07
0E
1C
38
70
E0
FF
FF
ENDCHAR
STARTCHAR 007B
ENCODING 123
SWIDTH 384 0
DWIDTH 8 0
BBX 7 20 1 -3
BITMAP
0E
1E
38
30
30
30
30
30
70
F0
E0
70
30
30
30
30
30
38
1E
0E
ENDCHAR
STARTCHAR 007C
ENCODING 124
SWIDTH 288 0
DWIDTH 6 0
BBX 2 20 2 -3
BITMAP
C0
C0
C0
C0
C0
C0
C0
C0
C0
C0
C0
C0
C0
C0
C0
C0
C0
C0
C0
C0
ENDCHAR
STARTCHAR 007D
ENCODING 125
SWIDTH 384 0
DWIDTH 8 0
BBX 7 20 0 -3
BITMAP
E0
F0
38
38
38
38
38
38
18
1E
0E
1C
38
38
38
38
38
38
F0
E0
ENDCHAR
STARTCHAR 007E
ENCODING 126
SWIDTH 576 0
DWIDTH 12 0
BBX 10 4 1 4
BITMAP
7800
FCC0
CFC0
0780
ENDCHAR
STARTCHAR 00A0
ENCODING 160
SWIDTH 240 0
DWIDTH 5 0
BBX 0 0 0 0
BITMAP
ENDCHAR
STARTCHAR 00A1
ENCODING 161
SWIDTH 288 0
DWIDTH 6 0
BBX 4 14 1 -4
BITMAP
60
F0
60
00
60
60
60
60
60
60
70
70
70
70
ENDCHAR
STARTCHAR 00A2
ENCODING 162
SWIDTH 528 0
DWIDTH 11 0
BBX 9 14 1 0
BITMAP
0C00
0C00
3E00
7F80
F380
E100
E000
E000
E100
F380
7F80
3F00
0C00
0C00
ENDCHAR
STARTCHAR 00A3
ENCODING 163
SWIDTH 576 0
DWIDTH 12 0
BBX 11 14 1 0
BITMAP
1F00
3F80
39C0
71C0
7000
7000
FF00
FF00
3800
3800
38E0
71E0
FFC0
FF80
ENDCHAR
STARTCHAR 00A4
ENCODING 164
SWIDTH 576 0
DWIDTH 12 0
BBX 10 10 1 0
BITMAP
4080
FFC0
7F80
7180
61C0
61C0
7180
7F80
FFC0
4080
ENDCHAR
STARTCHAR 00A5
ENCODING 165
SWIDTH 624 0
DWIDTH 13 0
BBX 11 14 1 0
BITMAP
E0E0
E0E0
71C0
7180
3B80
3B00
FFE0
FFE0
0E00
FFE0
FFE0
0E00
0E00
0E00
ENDCHAR
STARTCHAR 00A6
ENCODING 166
SWIDTH 288 0
DWIDTH 6 0
BBX 2 20 2 -3
BITMAP
C0
C0
C0
C0
C0
C0
C0
C0
00
00
00
00
C0
C0
C0
C0
C0
C0
C0
C0
ENDCHAR
STARTCHAR 00A7
ENCODING 167
SWIDTH 576 0
DWIDTH 12 0
BBX 9 19 1 -4
BITMAP
1E00
7F00
7380
E180
E000
7800
3E00
7F00
6780
E380
7180
7F80
3F00
0F80
0380
E380
6380
7F80
3F00
ENDCHAR
STARTCHAR 00A8
ENCODING 168
SWIDTH 384 0
DWIDTH 8 0
BBX 7 3 1 12
BITMAP
CC
CE
CE
ENDCHAR
STARTCHAR 00A9
ENCODING 169
SWIDTH 816 0
DWIDTH 17 0
BBX 15 15 1 0
BITMAP
07C0
1FF0
3018
638C
CFE6
CC66
CC06
DC06
CC06
CC66
CFE6
638C
3018
1FF0
07C0
ENDCHAR
STARTCHAR 00AA
ENCODING 170
SWIDTH 432 0
DWIDTH 9 0
BBX 7 8 1 6
BITMAP
38
7C
46
3E
F6
CE
FE
76
ENDCHAR
STARTCHAR 00AB
ENCODING 171
SWIDTH 528 0
DWIDTH 11 0
BBX 9 8 1 2
BITMAP
3980
7300
6700
EE00
EE00
6700
7300
3980
ENDCHAR
STARTCHAR 00AC
ENCODING 172
SWIDTH 576 0
DWIDTH 12 0
BBX 10 6 1 3
BITMAP
FFC0
FFC0
00C0
00C0
00C0
00C0
ENDCHAR
STARTCHAR 00AD
ENCODING 173
SWIDTH 384 0
DWIDTH 8 0
BBX 6 2 1 5
BITMAP
FC
FC
ENDCHAR
STARTCHAR 00AE
ENCODING 174
SWIDTH 816 0
DWIDTH 17 0
BBX 15 15 1 0
BITMAP
07C0
1FF0
3018
678C
C7C6
C666
C666
C7C6
C786
C6C6
C6C6
600C
3018
1FF0
07C0
ENDCHAR
STARTCHAR 00AF
ENCODING 175
SWIDTH 336 0
DWIDTH 7 0
BBX 5 2 1 12
BITMAP
F8
F8
ENDCHAR
STARTCHAR 00B0
ENCODING 176
SWIDTH 384 0
DWIDTH 8 0
BBX 7 7 0 7
BITMAP
3C
7E
66
C6
66
7E
3C
ENDCHAR
STARTCHAR 00B1
ENCODING 177
SWIDTH 576 0
DWIDTH 12 0
BBX 10 10 1 1
BITMAP
0C00
0C00
FFC0
FFC0
0C00
0C00
0C00
0000
FFC0
FFC0
ENDCHAR
STARTCHAR 00B2
ENCODING 178
SWIDTH 384 0
DWIDTH 8 0
BBX 6 8 1 7
BITMAP
78
FC
CC
1C
38
60
FC
FC
ENDCHAR
STARTCHAR 00B3
ENCODING 179
SWIDTH 432 0
DWIDTH 9 0
BBX 6 8 1 7
BITMAP
FC
FC
18
3C
0C
CC
FC
78
ENDCHAR
STARTCHAR 00B4
ENCODING 180
SWIDTH 288 0
DWIDTH 6 0
BBX 4 4 1 11
BITMAP
70
70
E0
C0
ENDCHAR
STARTCHAR 00B5
ENCODING 181
SWIDTH 576 0
DWIDTH 12 0
BBX 10 14 1 -4
BITMAP
E1C0
E1C0
E1C0
E1C0
E1C0
E1C0
E1C0
F3C0
FFC0
FDC0
E000
E000
E000
E000
ENDCHAR
STARTCHAR 00B6
ENCODING 182
SWIDTH 672 0
DWIDTH 14 0
BBX 13 19 1 -4
BITMAP
3FF8
7FF8
FCE0
FCE0
FCE0
FCE0
FCE0
7CE0
1CE0
0CE0
0CE0
0CE0
0CE0
0CE0
0CE0
0CE0
0CE0
0CE0
0CE0
ENDCHAR
STARTCHAR 00B7
ENCODING 183
SWIDTH 288 0
DWIDTH 6 0
BBX 4 3 1 5
BITMAP
60
F0
60
ENDCHAR
STARTCHAR 00B8
ENCODING 184
SWIDTH 288 0
DWIDTH 6 0
BBX 5 5 1 -5
BITMAP
60
70
18
F8
F0
ENDCHAR
STARTCHAR 00B9
ENCODING 185
SWIDTH 288 0
DWIDTH 6 0
BBX 4 8 1 7
BITMAP
30
70
F0
30
30
30
30
30
ENDCHAR
STARTCHAR 00BA
ENCODING 186
SWIDTH 480 0
DWIDTH 10 0
BBX 8 8 1 6
BITMAP
3C
7E
E7
C3
C3
E7
7E
3C
ENDCHAR
STARTCHAR 00BB
ENCODING 187
SWIDTH 528 0
DWIDTH 11 0
BBX 9 8 1 2
BITMAP
CE00
E700
7300
3380
3380
7300
E700
CE00
ENDCHAR
STARTCHAR 00BC
ENCODING 188
SWIDTH 816 0
DWIDTH 17 0
BBX 15 14 1 0
BITMAP
3038
7030
F060
F0E0
31C0
3180
3380
371C
063C
0C6C
1CCC
18FE
30FE
700C
ENDCHAR
STARTCHAR 00BD
ENCODING 189
SWIDTH 816 0
DWIDTH 17 0
BBX 15 14 1 0
BITMAP
3038
7030
F060
F0E0
31C0
3180
3398
373E
0666
0C06
1C1C
1838
307E
707E
ENDCHAR
STARTCHAR 00BE
ENCODING 190
SWIDTH 864 0
DWIDTH 18 0
BBX 17 14 1 0
BITMAP
FC0C00
FC1C00
181800
3C3000
0C7000
CC6000
FCC600
79CE00
039E00
033600
073600
0E3F80
0C3F80
180600
ENDCHAR
STARTCHAR 00BF
ENCODING 191
SWIDTH 480 0
DWIDTH 10 0
BBX 10 14 0 -4
BITMAP
0E00
0E00
0E00
0000
0E00
0E00
1C00
3C00
7000
E1C0
E1C0
F1C0
7F80
3F00
ENDCHAR
STARTCHAR 00C0
ENCODING 192
SWIDTH 720 0
DWIDTH 15 0
BBX 15 19 0 0
BITMAP
0E00
0700
0380
0000
0380
07C0
07C0
06E0
0EE0
0EE0
1C70
1C70
1C70
3FF8
3FF8
3FFC
701C
701C
E00E
ENDCHAR
STARTCHAR 00C1
ENCODING 193
SWIDTH 720 0
DWIDTH 15 0
BBX 15 19 0 0
BITMAP
00E0
01C0
0380
0000
0380
07C0
07C0
06E0
0EE0
0EE0
1C70
1C70
1C70
3FF8
3FF8
3FFC
701C
701C
E00E
ENDCHAR
STARTCHAR 00C2
ENCODING 194
SWIDTH 720 0
DWIDTH 15 0
BBX 15 19 0 0
BITMAP
0380
07C0
0EE0
0000
0380
07C0
07C0
06E0
0EE0
0EE0
1C70
1C70
1C70
3FF8
3FF8
3FFC
701C
701C
E00E
ENDCHAR
STARTCHAR 00C3
ENCODING 195
SWIDTH 720 0
DWIDTH 15 0
BBX 15 19 0 0
BITMAP
0660
0FE0
0DC0
0000
0380
07C0
07C0
06E0
0EE0
0EE0
1C70
1C70
1C70
3FF8
3FF8
3FFC
701C
701C
E00E
ENDCHAR
STARTCHAR 00C4
ENCODING 196
SWIDTH 720 0
DWIDTH 15 0
BBX 15 19 0 0
BITMAP
1830
1C70
1830
0000
0380
07C0
07C0
06E0
0EE0
0EE0
1C70
1C70
1C70
3FF8
3FF8
3FFC
701C
701C
E00E
ENDCHAR
STARTCHAR 00C5
ENCODING 197
SWIDTH 720 0
DWIDTH 15 0
BBX 15 19 0 0
BITMAP
0300
07C0
06C0
06C0
07C0
07C0
07C0
06C0
0EE0
0EE0
1C70
1C70
1C70
3FF8
3FF8
3FFC
701C
701C
E00E
ENDCHAR
STARTCHAR 00C6
ENCODING 198
SWIDTH 1056 0
DWIDTH 22 0
BBX 21 15 0 0
BITMAP
003FF8
007FF8
00FFF8
00EE00
01CE00
03CE00
038FF0
070FF0
0F0FF0
0FFE00
1FFE00
3C0E00
380FF8
780FF8
F00FF8
ENDCHAR
STARTCHAR 00C7
ENCODING 199
SWIDTH 768 0
DWIDTH 16 0
BBX 14 20 1 -5
BITMAP
07C0
1FF0
3FF8
783C
F01C
E010
E000
E000
E000
E000
E01C
703C
7C78
3FF0
1FE0
0100
0380
00C0
06C0
0780
ENDCHAR
STARTCHAR 00C8
ENCODING 200
SWIDTH 576 0
DWIDTH 12 0
BBX 9 19 2 0
BITMAP
7000
3800
1C00
0000
FF80
FF80
FF80
E000
E000
E000
FF00
FF00
FF00
E000
E000
E000
FF80
FF80
FF80
ENDCHAR
STARTCHAR 00C9
ENCODING 201
SWIDTH 576 0
DWIDTH 12 0
BBX 9 19 2 0
BITMAP
0700
0E00
1C00
0000
FF80
FF80
FF80
E000
E000
E000
FF00
FF00
FF00
E000
E000
E000
FF80
FF80
FF80
ENDCHAR
STARTCHAR 00CA
ENCODING 202
SWIDTH 576 0
DWIDTH 12 0
BBX 9 19 2 0
BITMAP
1C00
3E00
6700
0000
FF80
FF80
FF80
E000
E000
E000
FF00
FF00
FF00
E000
E000
E000
FF80
FF80
FF80
ENDCHAR
STARTCHAR 00CB
ENCODING 203
SWIDTH 576 0
DWIDTH 12 0
BBX 9 19 2 0
BITMAP
6300
7700
6300
0000
FF80
FF80
FF80
E000
E000
E000
FF00
FF00
FF00
E000
E000
E000
FF80
FF80
FF80
ENDCHAR
STARTCHAR 00CC
ENCODING 204
SWIDTH 288 0
DWIDTH 6 0
BBX 6 19 -1 0
BITMAP
F0
70
38
00
1C
1C
1C
1C
1C
1C
1C
1C
1C
1C
1C
1C
1C
1C
1C
ENDCHAR
STARTCHAR 00CD
ENCODING 205
SWIDTH 288 0
DWIDTH 6 0
BBX 5 19 2 0
BITMAP
38
70
E0
00
E0
E0
E0
E0
E0
E0
E0
E0
E0
E0
E0
E0
E0
E0
E0
ENDCHAR
STARTCHAR 00CE
ENCODING 206
SWIDTH 288 0
DWIDTH 6 0
BBX 7 19 0 0
BITMAP
38
7C
CE
00
38
38
38
38
38
38
38
38
38
38
38
38
38
38
38
ENDCHAR
STARTCHAR 00CF
ENCODING 207
SWIDTH 288 0
DWIDTH 6 0
BBX 7 19 0 0
BITMAP
CC
EE
CC
00
38
38
38
38
38
38
38
38
38
38
38
38
38
38
38
ENDCHAR
STARTCHAR 00D0
ENCODING 208
SWIDTH 768 0
DWIDTH 16 0
BBX 15 15 0 0
BITMAP
3FC0
3FF0
3FF8
383C
381C
380E
FF0E
FF0E
380E
381E
381C
383C
3FF8
3FF0
3FC0
ENDCHAR
STARTCHAR 00D1
ENCODING 209
SWIDTH 768 0
DWIDTH 16 0
BBX 12 19 2 0
BITMAP
1CC0
1F80
3380
0000
F070
F070
F870
F870
FC70
FE70
EE70
E770
E7F0
E3F0
E3F0
E1F0
E0F0
E0F0
E070
ENDCHAR
STARTCHAR 00D2
ENCODING 210
SWIDTH 816 0
DWIDTH 17 0
BBX 15 19 1 0
BITMAP
1E00
0F00
0300
0000
07C0
1FF0
3FF8
783C
F01C
E00E
E00E
E00E
E00E
E00E
F01C
783C
3FF8
1FF0
07C0
ENDCHAR
STARTCHAR 00D3
ENCODING 211
SWIDTH 816 0
DWIDTH 17 0
BBX 15 19 1 0
BITMAP
00E0
01C0
0380
0000
07C0
1FF0
3FF8
783C
F01C
E00E
E00E
E00E
E00E
E00E
F01C
783C
3FF8
1FF0
07C0
ENDCHAR
STARTCHAR 00D4
ENCODING 212
SWIDTH 816 0
DWIDTH 17 0
BBX 15 19 1 0
BITMAP
0380
07C0
0CE0
0000
07C0
1FF0
3FF8
783C
F01C
E00E
E00E
E00E
E00E
E00E
F01C
783C
3FF8
1FF0
07C0
ENDCHAR
STARTCHAR 00D5
ENCODING 213
SWIDTH 816 0
DWIDTH 17 0
BBX 15 19 1 0
BITMAP
0660
0FE0
0DC0
0000
07C0
1FF0
3FF8
783C
F01C
E00E
E00E
E00E
E00E
E00E
F01C
783C
3FF8
1FF0
07C0
ENDCHAR
STARTCHAR 00D6
ENCODING 214
SWIDTH 816 0
DWIDTH 17 0
BBX 15 19 1 0
BITMAP
1830
3870
1830
0000
07C0
1FF0
3FF8
783C
F01C
E00E
E00E
E00E
E00E
E00E
F01C
783C
3FF8
1FF0
07C0
ENDCHAR
STARTCHAR 00D7
ENCODING 215
SWIDTH 576 0
DWIDTH 12 0
BBX 10 10 1 1
BITMAP
4080
E1C0
7380
3F00
1E00
1E00
3F00
7380
E1C0
4080
ENDCHAR
STARTCHAR 00D8
ENCODING 216
SWIDTH 816 0
DWIDTH 17 0
BBX 15 17 1 -1
BITMAP
0008
07CC
1FFC
3FF8
787C
F0FC
E0CE
E1CE
E38E
E70E
EE0E
FC1C
7C3C
3FF8
7FF0
E7C0
2000
ENDCHAR
STARTCHAR 00D9
ENCODING 217
SWIDTH 672 0
DWIDTH 14 0
BBX 11 19 2 0
BITMAP
7800
1C00
0C00
0000
C0E0
C0E0
C0E0
C0E0
C0E0
C0E0
C0E0
C0E0
C0E0
C0E0
E0E0
E1E0
FFC0
7F80
1F00
ENDCHAR
STARTCHAR 00DA
ENCODING 218
SWIDTH 672 0
DWIDTH 14 0
BBX 11 19 2 0
BITMAP
0780
0700
0E00
0000
C0E0
C0E0
C0E0
C0E0
C0E0
C0E0
C0E0
C0E0
C0E0
C0E0
E0E0
E1E0
FFC0
7F80
1F00
ENDCHAR
STARTCHAR 00DB
ENCODING 219
SWIDTH 672 0
DWIDTH 14 0
BBX 11 19 2 0
BITMAP
0E00
1F00
3380
0000
C0E0
C0E0
C0E0
C0E0
C0E0
C0E0
C0E0
C0E0
C0E0
C0E0
E0E0
E1E0
FFC0
7F80
1F00
ENDCHAR
STARTCHAR 00DC
ENCODING 220
SWIDTH 672 0
DWIDTH 14 0
BBX 11 19 2 0
BITMAP
3180
7380
3180
0000
C0E0
C0E0
C0E0
C0E0
C0E0
C0E0
C0E0
C0E0
C0E0
C0E0
E0E0
E1E0
FFC0
7F80
1F00
ENDCHAR
STARTCHAR 00DD
ENCODING 221
SWIDTH 672 0
DWIDTH 14 0
BBX 13 19 0 0
BITMAP
01E0
0380
0300
0000
F038
7078
3870
3CE0
1CE0
1FC0
0FC0
0780
0700
0700
0700
0700
0700
0700
0700
ENDCHAR
STARTCHAR 00DE
ENCODING 222
SWIDTH 624 0
DWIDTH 13 0
BBX 10 15 2 0
BITMAP
E000
E000
E000
FF00
FF80
E3C0
E1C0
E1C0
E1C0
E7C0
FF80
FE00
E000
E000
E000
ENDCHAR
STARTCHAR 00DF
ENCODING 223
SWIDTH 576 0
DWIDTH 12 0
BBX 11 15 1 0
BITMAP
1F00
3F80
7BC0
71C0
E1C0
E3C0
E780
E600
E700
E7C0
E3E0
E0E0
ECE0
EFE0
E780
ENDCHAR
STARTCHAR 00E0
ENCODING 224
SWIDTH 528 0
DWIDTH 11 0
BBX 9 14 1 0
BITMAP
7000
3800
1C00
0000
3E00
7F00
E380
6380
1F80
7F80
E380
E380
FF80
7B80
ENDCHAR
STARTCHAR 00E1
ENCODING 225
SWIDTH 528 0
DWIDTH 11 0
BBX 9 14 1 0
BITMAP
0700
0E00
1C00
0000
3E00
7F00
E380
6380
1F80
7F80
E380
E380
FF80
7B80
ENDCHAR
STARTCHAR 00E2
ENCODING 226
SWIDTH 528 0
DWIDTH 11 0
BBX 9 14 1 0
BITMAP
1C00
3E00
6700
0000
3E00
7F00
E380
6380
1F80
7F80
E380
E380
FF80
7B80
ENDCHAR
STARTCHAR 00E3
ENCODING 227
SWIDTH 528 0
DWIDTH 11 0
BBX 9 15 1 0
BITMAP
3B00
7F00
6E00
0000
0000
3E00
7F00
E380
6380
1F80
7F80
E380
E380
FF80
7B80
ENDCHAR
STARTCHAR 00E4
ENCODING 228
SWIDTH 528 0
DWIDTH 11 0
BBX 9 14 1 0
BITMAP
6300
7700
6300
0000
3E00
7F00
E380
6380
1F80
7F80
E380
E380
FF80
7B80
ENDCHAR
STARTCHAR 00E5
ENCODING 229
SWIDTH 528 0
DWIDTH 11 0
BBX 9 15 1 0
BITMAP
1C00
3600
3600
1C00
0000
3E00
7F00
E380
6380
1F80
7F80
E380
E380
FF80
7B80
ENDCHAR
STARTCHAR 00E6
ENCODING 230
SWIDTH 864 0
DWIDTH 18 0
BBX 16 10 1 0
BITMAP
3E7C
7FFE
E3C7
0383
3FFF
7FFF
E380
E3C7
FEFE
7C7C
ENDCHAR
STARTCHAR 00E7
ENCODING 231
SWIDTH 528 0
DWIDTH 11 0
BBX 10 15 1 -5
BITMAP
1E00
7F80
FF80
E1C0
E000
C000
E000
E1C0
7F80
3F00
0E00
0C00
0E00
1600
1E00
ENDCHAR
STARTCHAR 00E8
ENCODING 232
SWIDTH 576 0
DWIDTH 12 0
BBX 10 14 1 0
BITMAP
3800
1800
0C00
0000
1E00
7F80
F380
E1C0
FFC0
FFC0
E000
F380
7F80
1E00
ENDCHAR
STARTCHAR 00E9
ENCODING 233
SWIDTH 576 0
DWIDTH 12 0
BBX 10 14 1 0
BITMAP
0700
0E00
0C00
0000
1E00
7F80
F380
E1C0
FFC0
FFC0
E000
F380
7F80
1E00
ENDCHAR
STARTCHAR 00EA
ENCODING 234
SWIDTH 576 0
DWIDTH 12 0
BBX 10 14 1 0
BITMAP
1E00
3E00
3300
0000
1E00
7F80
F380
E1C0
FFC0
FFC0
E000
F380
7F80
1E00
ENDCHAR
STARTCHAR 00EB
ENCODING 235
SWIDTH 576 0
DWIDTH 12 0
BBX 10 14 1 0
BITMAP
3300
7380
3300
0000
1E00
7F80
F380
E1C0
FFC0
FFC0
E000
F380
7F80
1E00
ENDCHAR
STARTCHAR 00EC
ENCODING 236
SWIDTH 288 0
DWIDTH 6 0
BBX 4 14 0 0
BITMAP
E0
60
70
00
70
70
70
70
70
70
70
70
70
70
ENDCHAR
STARTCHAR 00ED
ENCODING 237
SWIDTH 288 0
DWIDTH 6 0
BBX 5 14 1 0
BITMAP
38
30
60
00
E0
E0
E0
E0
E0
E0
E0
E0
E0
E0
ENDCHAR
STARTCHAR 00EE
ENCODING 238
SWIDTH 288 0
DWIDTH 6 0
BBX 6 14 0 0
BITMAP
78
F8
CC
00
70
70
70
70
70
70
70
70
70
70
ENDCHAR
STARTCHAR 00EF
ENCODING 239
SWIDTH 288 0
DWIDTH 6 0
BBX 6 14 0 0
BITMAP
CC
DC
CC
00
70
70
70
70
70
70
70
70
70
70
ENDCHAR
STARTCHAR 00F0
ENCODING 240
SWIDTH 576 0
DWIDTH 12 0
BBX 10 16 1 0
BITMAP
3000
3C80
1FC0
1F00
3B80
0180
3FC0
7FC0
F3C0
E1C0
C0C0
E0C0
E1C0
FFC0
7F80
1E00
ENDCHAR
STARTCHAR 00F1
ENCODING 241
SWIDTH 576 0
DWIDTH 12 0
BBX 10 15 1 0
BITMAP
3980
3F80
2700
0000
0000
EF00
FF80
FFC0
E1C0
E1C0
E1C0
E1C0
E1C0
E1C0
E1C0
ENDCHAR
STARTCHAR 00F2
ENCODING 242
SWIDTH 576 0
DWIDTH 12 0
BBX 10 14 1 0
BITMAP
3800
1800
0C00
0000
1E00
7F80
FFC0
E1C0
E0C0
E0C0
E1C0
FFC0
7F80
1E00
ENDCHAR
STARTCHAR 00F3
ENCODING 243
SWIDTH 576 0
DWIDTH 12 0
BBX 10 14 1 0
BITMAP
0700
0600
0C00
0000
1E00
7F80
FFC0
E1C0
E0C0
E0C0
E1C0
FFC0
7F80
1E00
ENDCHAR
STARTCHAR 00F4
ENCODING 244
SWIDTH 576 0
DWIDTH 12 0
BBX 10 14 1 0
BITMAP
1E00
1F00
3300
0000
1E00
7F80
FFC0
E1C0
E0C0
E0C0
E1C0
FFC0
7F80
1E00
ENDCHAR
STARTCHAR 00F5
ENCODING 245
SWIDTH 576 0
DWIDTH 12 0
BBX 10 15 1 0
BITMAP
3980
3F80
6700
0000
0000
1E00
7F80
FFC0
E1C0
E0C0
E0C0
E1C0
FFC0
7F80
1E00
ENDCHAR
STARTCHAR 00F6
ENCODING 246
SWIDTH 576 0
DWIDTH 12 0
BBX 10 14 1 0
BITMAP
3300
7380
3300
0000
1E00
7F80
FFC0
E1C0
E0C0
E0C0
E1C0
FFC0
7F80
1E00
ENDCHAR
STARTCHAR 00F7
ENCODING 247
SWIDTH 576 0
DWIDTH 12 0
BBX 10 11 1 1
BITMAP
0C00
1E00
0E00
0000
0000
FFC0
FFC0
0000
0C00
1E00
0C00
ENDCHAR
STARTCHAR 00F8
ENCODING 248
SWIDTH 576 0
DWIDTH 12 0
BBX 10 12 1 -1
BITMAP
0080
1EC0
7F80
FFC0
E7C0
EEC0
ECC0
F9C0
FFC0
7F80
DE00
4000
ENDCHAR
STARTCHAR 00F9
ENCODING 249
SWIDTH 576 0
DWIDTH 12 0
BBX 10 14 1 0
BITMAP
3800
1C00
0C00
0000
E1C0
E1C0
E1C0
E1C0
E1C0
E1C0
E1C0
73C0
7FC0
3DC0
ENDCHAR
STARTCHAR 00FA
ENCODING 250
SWIDTH 576 0
DWIDTH 12 0
BBX 10 14 1 0
BITMAP
0700
0E00
0C00
0000
E1C0
E1C0
E1C0
E1C0
E1C0
E1C0
E1C0
73C0
7FC0
3DC0
ENDCHAR
STARTCHAR 00FB
ENCODING 251
SWIDTH 576 0
DWIDTH 12 0
BBX 10 14 1 0
BITMAP
1E00
1F00
3300
0000
E1C0
E1C0
E1C0
E1C0
E1C0
E1C0
E1C0
73C0
7FC0
3DC0
ENDCHAR
STARTCHAR 00FC
ENCODING 252
SWIDTH 576 0
DWIDTH 12 0
BBX 10 14 1 0
BITMAP
3300
7380
3300
0000
E1C0
E1C0
E1C0
E1C0
E1C0
E1C0
E1C0
73C0
7FC0
3DC0
ENDCHAR
STARTCHAR 00FD
ENCODING 253
SWIDTH 576 0
DWIDTH 12 0
BBX 11 18 0 -4
BITMAP
0380
0700
0600
0000
E0E0
70E0
71C0
39C0
3980
1F80
1F00
0F00
0F00
0E00
0E00
1C00
1C00
3800
ENDCHAR
STARTCHAR 00FE
ENCODING 254
SWIDTH 624 0
DWIDTH 13 0
BBX 11 19 1 -4
BITMAP
E000
E000
E000
E000
E000
EF80
FFC0
FFC0
F0E0
E0E0
E0E0
F0E0
FBC0
FFC0
EF00
E000
E000
E000
E000
ENDCHAR
STARTCHAR 00FF
ENCODING 255
SWIDTH 576 0
DWIDTH 12 0
BBX 11 18 0 -4
BITMAP
1980
39C0
1980
0000
E0E0
70E0
71C0
39C0
3980
1F80
1F00
0F00
0F00
0E00
0E00
1C00
1C00
3800
ENDCHAR
STARTCHAR 0131
ENCODING 305
SWIDTH 288 0
DWIDTH 6 0
BBX 3 10 1 0
BITMAP
E0
E0
E0
E0
E0
E0
E0
E0
E0
E0
ENDCHAR
STARTCHAR 0141
ENCODING 321
SWIDTH 576 0
DWIDTH 12 0
BBX 12 15 0 0
BITMAP
3800
3800
3800
3800
3800
3B00
3F00
7E00
F800
F800
3800
3800
3FF0
3FF0
3FF0
ENDCHAR
STARTCHAR 0142
ENCODING 322
SWIDTH 336 0
DWIDTH 7 0
BBX 7 15 0 0
BITMAP
38
38
38
38
38
3A
3E
3E
F8
F8
38
38
38
38
38
ENDCHAR
STARTCHAR 0152
ENCODING 338
SWIDTH 1104 0
DWIDTH 23 0
BBX 21 15 1 0
BITMAP
07CFF8
1FFFF8
3EFFF8
703E00
F01E00
E00E00
E00FF8
E00FF8
E00FF8
E00E00
F01E00
783E00
3EFFF8
1FFFF8
07CFF8
ENDCHAR
STARTCHAR 0153
ENCODING 339
SWIDTH 960 0
DWIDTH 20 0
BBX 18 10 1 0
BITMAP
1E1E00
7FFF80
FFF380
E1E1C0
E0FFC0
C0FFC0
E1E000
FFF380
7FFF80
1E1E00
ENDCHAR
STARTCHAR 0160
ENCODING 352
SWIDTH 624 0
DWIDTH 13 0
BBX 11 19 1 0
BITMAP
3180
1B00
0E00
0000
1F00
3F80
7FC0
E0E0
E000
F000
7E00
3F80
0FC0
01E0
C0E0
E0E0
FFC0
7FC0
1F00
ENDCHAR
STARTCHAR 0161
ENCODING 353
SWIDTH 480 0
DWIDTH 10 0
BBX 8 14 1 0
BITMAP
66
7C
3C
00
3C
FE
E7
E0
FC
3E
07
E7
FE
3C
ENDCHAR
STARTCHAR 0178
ENCODING 376
SWIDTH 672 0
DWIDTH 14 0
BBX 13 19 0 0
BITMAP
1CC0
1CE0
1CC0
0000
F038
7078
3870
3CE0
1CE0
1FC0
0FC0
0780
0700
0700
0700
0700
0700
0700
0700
ENDCHAR
STARTCHAR 017D
ENCODING 381
SWIDTH 624 0
DWIDTH 13 0
BBX 11 19 1 0
BITMAP
39C0
1F80
0F00
0000
FFE0
FFE0
FFE0
01E0
03C0
0780
0F00
0E00
1E00
3C00
7800
F000
FFE0
FFE0
FFE0
ENDCHAR
STARTCHAR 017E
ENCODING 382
SWIDTH 480 0
DWIDTH 10 0
BBX 8 14 1 0
BITMAP
66
3E
3C
00
FF
FF
07
0E
1C
38
70
E0
FF
FF
ENDCHAR
STARTCHAR 0192
ENCODING 402
SWIDTH 528 0
DWIDTH 11 0
BBX 12 19 -1 -4
BITMAP
00F0
01F0
03F0
0380
0300
1FE0
1FE0
0700
0700
0600
0E00
0E00
0E00
0E00
1C00
1C00
FC00
F800
2000
ENDCHAR
STARTCHAR 02C6
ENCODING 710
SWIDTH 384 0
DWIDTH 8 0
BBX 7 4 1 11
BITMAP
38
78
EC
CE
ENDCHAR
STARTCHAR 02C7
ENCODING 711
SWIDTH 384 0
DWIDTH 8 0
BBX 7 4 1 11
BITMAP
CE
EC
78
38
ENDCHAR
STARTCHAR 02C9
ENCODING 713
SWIDTH 336 0
DWIDTH 7 0
BBX 5 2 1 12
BITMAP
F8
F8
ENDCHAR
STARTCHAR 02D8
ENCODING 728
SWIDTH 384 0
DWIDTH 8 0
BBX 6 4 1 11
BITMAP
8C
CC
FC
78
ENDCHAR
STARTCHAR 02D9
ENCODING 729
SWIDTH 192 0
DWIDTH 4 0
BBX 4 4 0 11
BITMAP
60
F0
F0
60
ENDCHAR
STARTCHAR 02DA
ENCODING 730
SWIDTH 288 0
DWIDTH 6 0
BBX 4 5 1 11
BITMAP
E0
F0
90
F0
E0
ENDCHAR
STARTCHAR 02DB
ENCODING 731
SWIDTH 240 0
DWIDTH 5 0
BBX 4 5 0 -5
BITMAP
30
60
E0
70
30
ENDCHAR
STARTCHAR 02DC
ENCODING 732
SWIDTH 384 0
DWIDTH 8 0
BBX 8 3 0 12
BITMAP
73
7F
CE
ENDCHAR
STARTCHAR 02DD
ENCODING 733
SWIDTH 384 0
DWIDTH 8 0
BBX 6 4 1 11
BITMAP
EC
FC
D8
98
ENDCHAR
STARTCHAR 0394
ENCODING 916
SWIDTH 672 0
DWIDTH 14 0
BBX 14 15 0 0
BITMAP
0780
0780
07C0
0FC0
0EC0
0CE0
1CE0
1C70
3870
3870
3838
7038
7FF8
7FFC
FFFC
ENDCHAR
STARTCHAR 03A9
ENCODING 937
SWIDTH 768 0
DWIDTH 16 0
BBX 14 15 1 0
BITMAP
0FC0
3FF0
7FF8
783C
F01C
E01C
E01C
E01C
E01C
703C
7878
3CF0
FCFC
FCFC
FCFC
ENDCHAR
STARTCHAR 03BC
ENCODING 956
SWIDTH 576 0
DWIDTH 12 0
BBX 10 14 1 -4
BITMAP
E1C0
E1C0
E1C0
E1C0
E1C0
E1C0
E1C0
F3C0
FFC0
FDC0
E000
E000
E000
E000
ENDCHAR
STARTCHAR 03C0
ENCODING 960
SWIDTH 624 0
DWIDTH 13 0
BBX 11 10 1 0
BITMAP
FFE0
FFE0
71C0
71C0
71C0
71C0
71C0
71C0
71E0
70E0
ENDCHAR
STARTCHAR 2007
ENCODING 8199
SWIDTH 624 0
DWIDTH 13 0
BBX 0 0 0 0
BITMAP
ENDCHAR
STARTCHAR 2008
ENCODING 8200
SWIDTH 288 0
DWIDTH 6 0
BBX 0 0 0 0
BITMAP
ENDCHAR
STARTCHAR 200B
ENCODING 8203
SWIDTH 0 0
DWIDTH 0 0
BBX 0 0 0 0
BITMAP
ENDCHAR
STARTCHAR 2013
ENCODING 8211
SWIDTH 624 0
DWIDTH 13 0
BBX 11 2 1 5
BITMAP
FFE0
FFE0
ENDCHAR
STARTCHAR 2014
ENCODING 8212
SWIDTH 1104 0
DWIDTH 23 0
BBX 20 2 1 5
BITMAP
FFFFF0
FFFFF0
ENDCHAR
STARTCHAR 2018
ENCODING 8216
SWIDTH 240 0
DWIDTH 5 0
BBX 3 6 1 9
BITMAP
60
C0
80
E0
E0
E0
ENDCHAR
STARTCHAR 2019
ENCODING 8217
SWIDTH 240 0
DWIDTH 5 0
BBX 3 6 1 9
BITMAP
E0
E0
E0
20
40
80
ENDCHAR
STARTCHAR 201A
ENCODING 8218
SWIDTH 240 0
DWIDTH 5 0
BBX 3 6 1 -3
BITMAP
E0
E0
E0
20
40
80
ENDCHAR
STARTCHAR 201C
ENCODING 8220
SWIDTH 432 0
DWIDTH 9 0
BBX 7 6 1 9
BITMAP
62
CC
88
EE
EE
EE
ENDCHAR
STARTCHAR 201D
ENCODING 8221
SWIDTH 432 0
DWIDTH 9 0
BBX 7 6 1 9
BITMAP
EE
EE
EE
22
46
8C
ENDCHAR
STARTCHAR 201E
ENCODING 8222
SWIDTH 432 0
DWIDTH 9 0
BBX 7 6 1 -3
BITMAP
EE
EE
EE
22
46
88
ENDCHAR
STARTCHAR 2020
ENCODING 8224
SWIDTH 432 0
DWIDTH 9 0
BBX 7 12 1 3
BITMAP
30
30
30
FE
FE
30
30
30
30
30
30
30
ENDCHAR
STARTCHAR 2021
ENCODING 8225
SWIDTH 432 0
DWIDTH 9 0
BBX 7 15 1 0
BITMAP
18
18
18
FE
FE
18
18
18
18
18
FE
FE
18
18
18
ENDCHAR
STARTCHAR 2022
ENCODING 8226
SWIDTH 528 0
DWIDTH 11 0
BBX 9 8 1 2
BITMAP
3E00
7F00
7F80
FF80
FF80
7F80
7F00
3E00
ENDCHAR
STARTCHAR 2026
ENCODING 8230
SWIDTH 912 0
DWIDTH 19 0
BBX 16 3 2 0
BITMAP
C386
E38F
C386
ENDCHAR
STARTCHAR 2030
ENCODING 8240
SWIDTH 1104 0
DWIDTH 23 0
BBX 21 14 1 0
BITMAP
381C00
7C3800
CE3000
C67000
CEE000
7CC000
398000
038000
031CE0
063FF0
0E6338
0C6318
187FF0
381DE0
ENDCHAR
STARTCHAR 2039
ENCODING 8249
SWIDTH 288 0
DWIDTH 6 0
BBX 5 8 1 2
BITMAP
38
70
60
E0
E0
60
70
38
ENDCHAR
STARTCHAR 203A
ENCODING 8250
SWIDTH 288 0
DWIDTH 6 0
BBX 4 8 1 2
BITMAP
C0
E0
70
30
30
70
E0
C0
ENDCHAR
STARTCHAR 2042
ENCODING 8258
SWIDTH 816 0
DWIDTH 17 0
BBX 15 15 1 0
BITMAP
0180
0180
0FE0
0FE0
03C0
06C0
0240
0000
3018
3018
FE7E
FE7E
383C
6C7E
4824
ENDCHAR
STARTCHAR 2044
ENCODING 8260
SWIDTH 576 0
DWIDTH 12 0
BBX 12 14 0 0
BITMAP
0070
0060
00C0
01C0
0380
0300
0700
0E00
0C00
1800
3800
3000
6000
E000
ENDCHAR
STARTCHAR 2051
ENCODING 8273
SWIDTH 432 0
DWIDTH 9 0
BBX 7 15 1 0
BITMAP
30
30
FE
FE
38
6C
4C
00
30
30
FE
FE
38
6C
4C
ENDCHAR
STARTCHAR 2070
ENCODING 8304
SWIDTH 432 0
DWIDTH 9 0
BBX 7 8 1 7
BITMAP
38
7C
C6
C6
C6
C6
7C
38
ENDCHAR
STARTCHAR 2074
ENCODING 8308
SWIDTH 432 0
DWIDTH 9 0
BBX 7 8 1 7
BITMAP
1C
3C
3C
6C
CC
FE
FE
0C
ENDCHAR
STARTCHAR 2075
ENCODING 8309
SWIDTH 384 0
DWIDTH 8 0
BBX 6 8 1 7
BITMAP
7C
7C
40
FC
0C
4C
FC
78
ENDCHAR
STARTCHAR 2076
ENCODING 8310
SWIDTH 432 0
DWIDTH 9 0
BBX 7 8 1 7
BITMAP
3C
7C
E0
FC
EE
CE
7C
38
ENDCHAR
STARTCHAR 2077
ENCODING 8311
SWIDTH 432 0
DWIDTH 9 0
BBX 6 8 1 7
BITMAP
FC
FC
1C
18
30
30
70
70
ENDCHAR
STARTCHAR 2078
ENCODING 8312
SWIDTH 432 0
DWIDTH 9 0
BBX 7 8 1 7
BITMAP
78
FC
CC
7C
7C
C6
FC
7C
ENDCHAR
STARTCHAR 2079
ENCODING 8313
SWIDTH 432 0
DWIDTH 9 0
BBX 7 8 1 7
BITMAP
78
FC
CC
CE
7E
0C
7C
F0
ENDCHAR
STARTCHAR 2080
ENCODING 8320
SWIDTH 432 0
DWIDTH 9 0
BBX 7 8 1 -2
BITMAP
38
7C
C6
C6
C6
EE
7C
38
ENDCHAR
STARTCHAR 2081
ENCODING 8321
SWIDTH 288 0
DWIDTH 6 0
BBX 4 7 1 -2
BITMAP
30
70
F0
30
30
30
30
ENDCHAR
STARTCHAR 2082
ENCODING 8322
SWIDTH 384 0
DWIDTH 8 0
BBX 6 8 1 -2
BITMAP
30
FC
CC
0C
38
70
FC
FC
ENDCHAR
STARTCHAR 2083
ENCODING 8323
SWIDTH 432 0
DWIDTH 9 0
BBX 6 8 1 -2
BITMAP
FC
FC
18
38
1C
4C
FC
78
ENDCHAR
STARTCHAR 2084
ENCODING 8324
SWIDTH 432 0
DWIDTH 9 0
BBX 7 7 1 -2
BITMAP
1C
3C
6C
CC
FE
FE
0C
ENDCHAR
STARTCHAR 2085
ENCODING 8325
SWIDTH 384 0
DWIDTH 8 0
BBX 6 8 1 -2
BITMAP
7C
7C
40
FC
4C
4C
FC
78
ENDCHAR
STARTCHAR 2086
ENCODING 8326
SWIDTH 432 0
DWIDTH 9 0
BBX 7 8 1 -2
BITMAP
1C
7C
60
FC
EE
C6
7C
38
ENDCHAR
STARTCHAR 2087
ENCODING 8327
SWIDTH 432 0
DWIDTH 9 0
BBX 6 8 1 -2
BITMAP
FC
FC
1C
18
30
30
70
70
ENDCHAR
STARTCHAR 2088
ENCODING 8328
SWIDTH 432 0
DWIDTH 9 0
BBX 7 9 1 -3
BITMAP
38
7C
EC
EC
78
EC
CE
FC
38
ENDCHAR
STARTCHAR 2089
ENCODING 8329
SWIDTH 432 0
DWIDTH 9 0
BBX 7 8 1 -2
BITMAP
30
7C
CC
CE
7E
0C
7C
F8
ENDCHAR
STARTCHAR 20AC
ENCODING 8364
SWIDTH 672 0
DWIDTH 14 0
BBX 13 14 1 0
BITMAP
03E0
0FF0
1FF0
3C00
FFC0
FFC0
3800
3800
FF80
FF80
3C00
1FF0
0FF8
03E0
ENDCHAR
STARTCHAR 2113
ENCODING 8467
SWIDTH 432 0
DWIDTH 9 0
BBX 7 14 1 0
BITMAP
3C
3E
76
76
76
7E
7C
7C
F0
F0
70
72
3E
1E
ENDCHAR
STARTCHAR 2122
ENCODING 8482
SWIDTH 864 0
DWIDTH 18 0
BBX 16 8 1 7
BITMAP
FDC7
FDC7
31EF
31EF
31FF
31BB
31BB
3193
ENDCHAR
STARTCHAR 2126
ENCODING 8486
SWIDTH 768 0
DWIDTH 16 0
BBX 14 15 1 0
BITMAP
0FC0
3FF0
7FF8
783C
F01C
E01C
E01C
E01C
E01C
703C
7878
3CF0
FCFC
FCFC
FCFC
ENDCHAR
STARTCHAR 2160
ENCODING 8544
SWIDTH 480 0
DWIDTH 10 0
BBX 8 14 1 0
BITMAP
FF
FF
1C
1C
1C
1C
1C
1C
1C
1C
1C
1C
FF
FF
ENDCHAR
STARTCHAR 2161
ENCODING 8545
SWIDTH 768 0
DWIDTH 16 0
BBX 14 14 1 0
BITMAP
FFFC
FFFC
1C70
1C70
1C70
1C70
1C70
1C70
1C70
1C70
1C70
1C70
FFFC
FFFC
ENDCHAR
STARTCHAR 2162
ENCODING 8546
SWIDTH 1056 0
DWIDTH 22 0
BBX 20 14 1 0
BITMAP
FFFFF0
FFFFF0
1C6380
1C6380
1C6380
1C6380
1C6380
1C6380
1C6380
1C6380
1C6380
1C6380
FFFFF0
FFFFF0
ENDCHAR
STARTCHAR 2163
ENCODING 8547
SWIDTH 1056 0
DWIDTH 22 0
BBX 20 14 1 0
BITMAP
FFFFF0
FFFFF0
1DC1C0
1DC180
1CE380
1CE380
1CE300
1C7700
1C7700
1C7700
1C3E00
1C3E00
FFFFF0
FFFFF0
ENDCHAR
STARTCHAR 2164
ENCODING 8548
SWIDTH 816 0
DWIDTH 17 0
BBX 15 14 1 0
BITMAP
FFFE
FFFE
3838
3870
1C70
1C70
1C60
0EE0
0EE0
0EC0
07C0
07C0
FFFE
FFFE
ENDCHAR
STARTCHAR 2165
ENCODING 8549
SWIDTH 1056 0
DWIDTH 22 0
BBX 20 14 1 0
BITMAP
FFFFF0
FFFFF0
383B80
387380
1C7380
1C7380
1C6380
0EE380
0EE380
0EE380
07C380
07C380
FFFFF0
FFFFF0
ENDCHAR
STARTCHAR 2166
ENCODING 8550
SWIDTH 1344 0
DWIDTH 28 0
BBX 26 14 1 0
BITMAP
FFFFFFC0
FFFFFFC0
383B8E00
38738E00
1C738E00
1C738E00
1C638E00
0EE38E00
0EE38E00
0EE38E00
07C38E00
07C38E00
FFFFFFC0
FFFFFFC0
ENDCHAR
STARTCHAR 2167
ENCODING 8551
SWIDTH 1584 0
DWIDTH 33 0
BBX 31 14 1 0
BITMAP
FFFFFFFE
FFFFFFFE
383B8E30
38738E30
1C738E30
1C738E30
1C638E30
0EE38E30
0EE38E30
0EC38E30
07C38E30
07C38E30
FFFFFFFE
FFFFFFFE
ENDCHAR
STARTCHAR 2168
ENCODING 8552
SWIDTH 1008 0
DWIDTH 21 0
BBX 19 14 1 0
BITMAP
FFFFE0
FFFFE0
1DE380
1CE780
1C7700
1C7E00
1C3C00
1C3C00
1C7E00
1C7F00
1CE700
1DE380
FFFFE0
FFFFE0
ENDCHAR
STARTCHAR 2169
ENCODING 8553
SWIDTH 768 0
DWIDTH 16 0
BBX 14 14 1 0
BITMAP
FFFC
FFFC
3870
1CE0
0FE0
0FC0
0780
0780
0FC0
0FE0
1CE0
3C70
FFFC
FFFC
ENDCHAR
STARTCHAR 216C
ENCODING 8556
SWIDTH 672 0
DWIDTH 14 0
BBX 12 14 1 0
BITMAP
FF00
FF00
3800
3800
3800
3800
3800
3800
3870
3870
3870
3870
FFF0
FFF0
ENDCHAR
STARTCHAR 216D
ENCODING 8557
SWIDTH 720 0
DWIDTH 15 0
BBX 13 14 1 0
BITMAP
0FB8
3FF8
78F8
7038
E038
E000
E000
E000
E000
E038
7038
7FF8
3FF8
0F98
ENDCHAR
STARTCHAR 216E
ENCODING 8558
SWIDTH 720 0
DWIDTH 15 0
BBX 14 14 1 0
BITMAP
FFC0
FFE0
19F0
1878
1838
1838
181C
181C
1838
1838
1878
19F0
FFE0
FFC0
ENDCHAR
STARTCHAR 216F
ENCODING 8559
SWIDTH 1056 0
DWIDTH 22 0
BBX 20 14 1 0
BITMAP
FC07F0
FE07F0
3E0F80
3F0F80
3F0F80
3B1D80
3B9D80
3B9980
39F980
39F980
38F180
38F180
FEE7F0
FE67F0
ENDCHAR
STARTCHAR 2190
ENCODING 8592
SWIDTH 1056 0
DWIDTH 22 0
BBX 21 10 0 1
BITMAP
080000
080000
380000
780000
FFFFF8
7FFFF8
380000
180000
080000
080000
ENDCHAR
STARTCHAR 2191
ENCODING 8593
SWIDTH 480 0
DWIDTH 10 0
BBX 9 20 1 -3
BITMAP
0800
1C00
3E00
7E00
7F00
FF80
1C00
1C00
1C00
1C00
1C00
1C00
1C00
1C00
1C00
1C00
1C00
1C00
1C00
1C00
ENDCHAR
STARTCHAR 2192
ENCODING 8594
SWIDTH 1104 0
DWIDTH 23 0
BBX 20 10 1 1
BITMAP
000200
000180
0001C0
0001E0
FFFFF0
FFFFF0
0001E0
0001C0
000180
000200
ENDCHAR
STARTCHAR 2193
ENCODING 8595
SWIDTH 480 0
DWIDTH 10 0
BBX 9 20 0 -3
BITMAP
0C00
0C00
0C00
0C00
0C00
0C00
0C00
0C00
0C00
0C00
0C00
0C00
0C00
0C00
FF80
7F80
3F00
1E00
1C00
0800
ENDCHAR
STARTCHAR 2196
ENCODING 8598
SWIDTH 864 0
DWIDTH 18 0
BBX 15 15 1 0
BITMAP
FE00
FC00
F800
FC00
FE00
CF00
8780
03C0
01E0
00F0
0078
003C
001E
000E
0004
ENDCHAR
STARTCHAR 2197
ENCODING 8599
SWIDTH 768 0
DWIDTH 16 0
BBX 15 15 -1 0
BITMAP
00FE
007E
003E
003E
007E
00E6
01C2
0380
0700
0E00
1C00
3800
7000
E000
4000
ENDCHAR
STARTCHAR 2198
ENCODING 8600
SWIDTH 864 0
DWIDTH 18 0
BBX 15 15 1 0
BITMAP
4000
E000
7000
3800
1C00
0E00
0700
0380
01C0
00E2
0076
003E
001E
003E
007E
ENDCHAR
STARTCHAR 2199
ENCODING 8601
SWIDTH 768 0
DWIDTH 16 0
BBX 15 15 1 0
BITMAP
0004
000E
001C
0038
0070
00E0
01C0
0380
0700
8E00
DC00
F800
F000
F800
FC00
ENDCHAR
STARTCHAR 21A9
ENCODING 8617
SWIDTH 864 0
DWIDTH 18 0
BBX 18 13 0 1
BITMAP
00FE00
00FF00
000780
000180
0801C0
1801C0
780380
FFFF80
FFFF00
780000
380000
180000
080000
ENDCHAR
STARTCHAR 21B0
ENCODING 8624
SWIDTH 816 0
DWIDTH 17 0
BBX 14 15 1 0
BITMAP
0800
0800
3800
7800
FFFC
7FFC
380C
180C
080C
000C
000C
000C
000C
000C
000C
ENDCHAR
STARTCHAR 21B1
ENCODING 8625
SWIDTH 768 0
DWIDTH 16 0
BBX 14 15 1 0
BITMAP
0080
0060
0070
0078
FFFC
FFFC
C070
C060
C040
C000
C000
C000
C000
C000
C000
ENDCHAR
STARTCHAR 21B2
ENCODING 8626
SWIDTH 768 0
DWIDTH 16 0
BBX 14 15 0 0
BITMAP
000C
000C
000C
000C
000C
000C
080C
180C
380C
7FFC
FFFC
7800
3800
1800
0800
ENDCHAR
STARTCHAR 21B3
ENCODING 8627
SWIDTH 864 0
DWIDTH 18 0
BBX 14 15 2 0
BITMAP
C000
C000
C000
C000
C000
C000
C040
C060
C070
FFF8
FFFC
0078
0070
0040
0080
ENDCHAR
STARTCHAR 21B4
ENCODING 8628
SWIDTH 816 0
DWIDTH 17 0
BBX 15 15 1 0
BITMAP
FFF0
FFF0
0030
0030
0030
0030
0030
0030
0030
0030
01FE
00FC
0078
0030
0020
ENDCHAR
STARTCHAR 21C6
ENCODING 8646
SWIDTH 1152 0
DWIDTH 24 0
BBX 21 17 2 -1
BITMAP
080000
180000
380000
FFFFF8
FFFFF8
780000
380000
180000
080100
000080
0000E0
0000F0
FFFFF8
FFFFF0
0000E0
0000C0
000100
ENDCHAR
STARTCHAR 2202
ENCODING 8706
SWIDTH 624 0
DWIDTH 13 0
BBX 11 15 1 0
BITMAP
7E00
FF80
7FC0
01C0
00E0
1EE0
7FE0
F1E0
E0E0
E0E0
E0E0
E1C0
FFC0
7F80
1F00
ENDCHAR
STARTCHAR 2206
ENCODING 8710
SWIDTH 672 0
DWIDTH 14 0
BBX 14 15 0 0
BITMAP
0780
0780
07C0
0FC0
0EC0
0CE0
1CE0
1C70
3870
3870
3838
7038
7FF8
7FFC
FFFC
ENDCHAR
STARTCHAR 220F
ENCODING 8719
SWIDTH 672 0
DWIDTH 14 0
BBX 11 15 2 0
BITMAP
FFE0
FFE0
FFE0
E0E0
E0E0
E0E0
E0E0
E0E0
E0E0
E0E0
E0E0
E0E0
E0E0
E0E0
E0E0
ENDCHAR
STARTCHAR 2211
ENCODING 8721
SWIDTH 576 0
DWIDTH 12 0
BBX 10 15 1 0
BITMAP
FFC0
FFC0
FFC0
7800
3C00
1E00
0F00
0780
0F00
1E00
3C00
7000
FFC0
FFC0
FFC0
ENDCHAR
STARTCHAR 2212
ENCODING 8722
SWIDTH 576 0
DWIDTH 12 0
BBX 10 2 1 5
BITMAP
FFC0
FFC0
ENDCHAR
STARTCHAR 2215
ENCODING 8725
SWIDTH 432 0
DWIDTH 9 0
BBX 9 14 0 0
BITMAP
0380
0380
0300
0700
0600
0E00
0C00
1C00
1800
3800
3000
7000
6000
E000
ENDCHAR
STARTCHAR 2219
ENCODING 8729
SWIDTH 288 0
DWIDTH 6 0
BBX 4 3 1 5
BITMAP
60
F0
60
ENDCHAR
STARTCHAR 221A
ENCODING 8730
SWIDTH 720 0
DWIDTH 15 0
BBX 14 18 1 0
BITMAP
007C
007C
0060
00E0
00E0
00C0
01C0
E1C0
E180
6380
7380
7300
3700
3F00
3E00
1E00
1E00
1C00
ENDCHAR
STARTCHAR 221E
ENCODING 8734
SWIDTH 816 0
DWIDTH 17 0
BBX 15 8 1 2
BITMAP
3C38
7EFE
EFEE
C3C6
C3C6
E7EE
7EFE
3C78
ENDCHAR
STARTCHAR 222B
ENCODING 8747
SWIDTH 336 0
DWIDTH 7 0
BBX 7 19 0 -4
BITMAP
0E
1E
3C
38
38
38
38
38
38
38
38
38
38
38
38
38
78
F0
E0
ENDCHAR
STARTCHAR 2248
ENCODING 8776
SWIDTH 576 0
DWIDTH 12 0
BBX 10 8 1 2
BITMAP
7800
FEC0
CFC0
0380
0000
7EC0
FFC0
4F80
ENDCHAR
STARTCHAR 2260
ENCODING 8800
SWIDTH 624 0
DWIDTH 13 0
BBX 10 10 1 1
BITMAP
01C0
0380
FFC0
FFC0
0E00
0C00
FFC0
FFC0
3000
7000
ENDCHAR
STARTCHAR 2264
ENCODING 8804
SWIDTH 528 0
DWIDTH 11 0
BBX 9 11 1 1
BITMAP
0080
0780
7F80
F800
F800
7F00
0F80
0180
0000
FF80
FF80
ENDCHAR
STARTCHAR 2265
ENCODING 8805
SWIDTH 528 0
DWIDTH 11 0
BBX 9 11 1 1
BITMAP
C000
F800
7F00
0F80
0780
7F00
F800
C000
0000
FF80
FF80
ENDCHAR
STARTCHAR 22C5
ENCODING 8901
SWIDTH 288 0
DWIDTH 6 0
BBX 4 3 1 5
BITMAP
60
F0
60
ENDCHAR
STARTCHAR 24C5
ENCODING 9413
SWIDTH 816 0
DWIDTH 17 0
BBX 15 15 1 0
BITMAP
07C0
1FF0
3018
678C
C7E6
C666
C666
C7E6
C786
C606
C604
600C
3018
1FF0
07C0
ENDCHAR
STARTCHAR 25A0
ENCODING 9632
SWIDTH 912 0
DWIDTH 19 0
BBX 15 15 2 0
BITMAP
FFFE
FFFE
FFFE
FFFE
FFFE
FFFE
FFFE
FFFE
FFFE
FFFE
FFFE
FFFE
FFFE
FFFE
FFFE
ENDCHAR
STARTCHAR 25A1
ENCODING 9633
SWIDTH 912 0
DWIDTH 19 0
BBX 15 15 2 0
BITMAP
FFFE
FFFE
C00E
C00E
C00E
C00E
C00E
C00E
C00E
C00E
C00E
C00E
C00E
FFFE
FFFE
ENDCHAR
STARTCHAR 25B2
ENCODING 9650
SWIDTH 816 0
DWIDTH 17 0
BBX 17 15 0 0
BITMAP
008000
00C000
01C000
01E000
03E000
03F000
07F800
0FF800
0FFC00
1FFC00
1FFE00
3FFE00
7FFF00
7FFF80
FFFF80
ENDCHAR
STARTCHAR 25B3
ENCODING 9651
SWIDTH 816 0
DWIDTH 17 0
BBX 17 15 0 0
BITMAP
008000
00C000
01C000
01E000
03E000
037000
073800
0E3800
0E1C00
1C1C00
180E00
380600
700700
7FFF80
FFFF80
ENDCHAR
STARTCHAR 25CA
ENCODING 9674
SWIDTH 624 0
DWIDTH 13 0
BBX 11 15 1 0
BITMAP
0E00
1F00
3F00
3B80
73C0
71C0
E0E0
E0E0
E0E0
71C0
73C0
3B80
3F00
1F00
0E00
ENDCHAR
STARTCHAR 25CB
ENCODING 9675
SWIDTH 816 0
DWIDTH 17 0
BBX 15 15 1 0
BITMAP
07C0
1FF0
3C78
701C
E00E
E00E
C006
C006
C006
E00E
E00E
701C
3C78
1FF0
07C0
ENDCHAR
STARTCHAR 25CF
ENCODING 9679
SWIDTH 816 0
DWIDTH 17 0
BBX 15 15 1 0
BITMAP
07C0
1FF0
3FF8
7FFC
FFFE
FFFE
FFFE
FFFE
FFFE
FFFE
FFFE
7FFC
3FF8
1FF0
07C0
ENDCHAR
STARTCHAR 262E
ENCODING 9774
SWIDTH 816 0
DWIDTH 17 0
BBX 15 15 1 0
BITMAP
07C0
1FF0
3FF8
739C
E38E
E38E
C386
C7C6
CFE6
FFFE
FBBE
739C
3FF8
1FF0
07C0
ENDCHAR
STARTCHAR 2713
ENCODING 10003
SWIDTH 960 0
DWIDTH 20 0
BBX 19 15 0 0
BITMAP
000040
0000E0
0001C0
000380
000780
000F00
001E00
603C00
F07800
787000
38E000
1DC000
0F8000
070000
020000
ENDCHAR
STARTCHAR 2715
ENCODING 10005
SWIDTH 768 0
DWIDTH 16 0
BBX 14 15 1 0
BITMAP
4008
E01C
F038
7870
3CE0
1FC0
0F80
0780
0FC0
1FE0
3CF0
7878
F03C
E01C
4008
ENDCHAR
STARTCHAR 2780
ENCODING 10112
SWIDTH 816 0
DWIDTH 17 0
BBX 15 15 1 0
BITMAP
07C0
1FF0
3018
600C
4186
C786
C786
C186
C186
C186
4186
600C
3018
1FF0
07C0
ENDCHAR
STARTCHAR 2781
ENCODING 10113
SWIDTH 816 0
DWIDTH 17 0
BBX 15 15 1 0
BITMAP
07C0
1FF0
3018
638C
C7C6
CEC6
C0C6
C3C6
C706
C7C6
4FC6
600C
3018
1FF0
07C0
ENDCHAR
STARTCHAR 2782
ENCODING 10114
SWIDTH 816 0
DWIDTH 17 0
BBX 15 15 1 0
BITMAP
07C0
1FF0
3818
600C
67C6
C7C6
C186
C3C6
C0E6
CCE6
C7C6
638C
3018
1FF0
07C0
ENDCHAR
STARTCHAR 2783
ENCODING 10115
SWIDTH 816 0
DWIDTH 17 0
BBX 15 15 1 0
BITMAP
07C0
1FF0
3018
600C
41C6
C3C6
C6C6
CCC6
CFE6
CFE6
40C6
600C
3018
1FF0
07C0
ENDCHAR
STARTCHAR 2784
ENCODING 10116
SWIDTH 816 0
DWIDTH 17 0
BBX 15 15 1 0
BITMAP
07C0
1FF0
3018
600C
67C6
C7C6
C406
C7C6
C0C6
CCC6
C7C6
638C
3018
1FF0
07C0
ENDCHAR
STARTCHAR 2785
ENCODING 10117
SWIDTH 816 0
DWIDTH 17 0
BBX 15 15 1 0
BITMAP
07C0
1FF0
3018
61CC
C7C6
C606
CD86
CFC6
CCE6
CCE6
C7C6
638C
3018
1FF0
07C0
ENDCHAR
STARTCHAR 2786
ENCODING 10118
SWIDTH 816 0
DWIDTH 17 0
BBX 15 15 1 0
BITMAP
07C0
1FF0
3018
600C
4FE6
CFE6
C1C6
C186
C386
C306
C306
600C
3018
1FF0
07C0
ENDCHAR
STARTCHAR 2787
ENCODING 10119
SWIDTH 816 0
DWIDTH 17 0
BBX 15 15 1 0
BITMAP
07C0
1FF0
3018
638C
C7C6
C6E6
C6C6
C3C6
CEE6
CE66
C7C6
638C
3018
1FF0
07C0
ENDCHAR
STARTCHAR 2788
ENCODING 10120
SWIDTH 816 0
DWIDTH 17 0
BBX 15 15 1 0
BITMAP
07C0
1FF0
3018
638C
C7C6
CE66
CE66
C7E6
C366
C0C6
C7C6
670C
3018
1FF0
07C0
ENDCHAR
STARTCHAR E000
ENCODING 57344
SWIDTH 768 0
DWIDTH 16 0
BBX 15 15 0 0
BITMAP
1FFE
1FFE
1C00
1C00
1C00
1C00
1C00
1C00
1C00
1C00
FF80
3F00
3E00
1C00
0800
ENDCHAR
STARTCHAR E001
ENCODING 57345
SWIDTH 1104 0
DWIDTH 23 0
BBX 21 15 1 0
BITMAP
00F800
03FC00
07C800
0E00C0
0C01E0
1C03F0
1807F8
1807F8
FF00C0
3E01C0
3C01C0
180380
008F00
01FE00
00F800
ENDCHAR
STARTCHAR E002
ENCODING 57346
SWIDTH 960 0
DWIDTH 20 0
BBX 18 15 1 0
BITMAP
07C000
1FE000
3E4000
700600
600F00
E01F80
C03FC0
C03FC0
C00600
E00E00
600E00
701C00
3C7800
1FF000
07C000
ENDCHAR
STARTCHAR FB00
ENCODING 64256
SWIDTH 672 0
DWIDTH 14 0
BBX 14 15 0 0
BITMAP
0E3C
1E7C
3C70
3870
3870
FFFC
FFFC
3870
3870
3870
3870
3870
3870
3870
3870
ENDCHAR
STARTCHAR FB01
ENCODING 64257
SWIDTH 624 0
DWIDTH 13 0
BBX 12 15 0 0
BITMAP
0E60
1E70
3C70
3800
3800
FFF0
FFF0
3870
3870
3870
3870
3870
3870
3870
3870
ENDCHAR
STARTCHAR FB02
ENCODING 64258
SWIDTH 624 0
DWIDTH 13 0
BBX 12 15 0 0
BITMAP
0E70
1E70
3C70
3870
3870
FFF0
FFF0
3870
3870
3870
3870
3870
3870
3870
3870
ENDCHAR
STARTCHAR FB03
ENCODING 64259
SWIDTH 960 0
DWIDTH 20 0
BBX 19 15 0 0
BITMAP
0E1CC0
1E7DE0
3E7CE0
387000
387000
FFFFC0
FFFFC0
3870C0
3870C0
3870C0
3870C0
3870C0
3870C0
3870C0
3870C0
ENDCHAR
STARTCHAR FB04
ENCODING 64260
SWIDTH 960 0
DWIDTH 20 0
BBX 18 15 0 0
BITMAP
0E3CC0
1E7CC0
3C70C0
3870C0
3870C0
FFFFC0
FFFFC0
3870C0
3870C0
3870C0
3870C0
3870C0
3870C0
3870C0
3870C0
ENDCHAR
STARTCHAR FEFF
ENCODING 65279
SWIDTH 0 0
DWIDTH 0 0
BBX 0 0 0 0
BITMAP
ENDCHAR
ENDFONT
